<svg version="1.0" xmlns="http://www.w3.org/2000/svg"
 width="152.000000pt" height="100.000000pt" viewBox="0 0 152.000000 100.000000"
 preserveAspectRatio="xMidYMid meet">

<g transform="translate(0.000000,100.000000) scale(0.100000,-0.100000)"
fill="#000000" stroke="none">
<path d="M736 983 c-17 -62 -37 -175 -34 -198 l3 -27 43 38 c24 20 51 54 61
74 l18 37 -39 33 c-23 19 -37 38 -34 46 3 8 1 14 -4 14 -5 0 -11 -8 -14 -17z"/>
<path d="M1405 919 c-60 -33 -121 -65 -135 -72 -24 -12 -23 -12 20 -17 28 -3
54 0 70 8 21 12 21 10 -5 -12 -27 -24 -38 -26 -115 -26 -47 0 -116 7 -154 15
-38 8 -73 12 -77 9 -14 -8 -10 -27 4 -21 7 3 23 -10 36 -29 13 -19 27 -34 32
-34 5 0 9 -10 9 -23 0 -30 -43 -68 -100 -91 -81 -32 -115 -51 -140 -77 -14
-15 -32 -29 -40 -32 -29 -11 140 -7 192 4 64 14 102 32 212 104 46 30 92 55
103 55 10 0 25 5 33 10 11 7 7 10 -20 11 -48 2 -111 -1 -132 -7 -41 -12 -14
14 45 43 57 28 112 67 227 159 28 23 46 46 47 60 1 13 1 24 0 23 -1 0 -51 -27
-112 -60z"/>
<path d="M670 943 c-12 -15 -38 -61 -58 -103 -35 -71 -37 -80 -36 -167 l1 -92
-24 10 c-37 14 -38 11 -4 -20 17 -16 31 -38 31 -50 0 -19 -1 -19 -28 -4 -19
11 -35 14 -48 8 -18 -8 -18 -9 3 -12 25 -5 53 -38 53 -63 0 -8 10 -31 21 -50
l21 -34 22 54 c22 53 22 54 3 73 -16 16 -18 28 -13 71 7 67 35 158 45 152 5
-3 6 25 4 62 -3 49 1 84 15 130 11 34 18 62 17 62 -2 0 -13 -12 -25 -27z"/>
<path d="M775 479 c-11 -4 -32 -8 -46 -8 -18 -1 -30 -9 -38 -27 -6 -15 -10
-28 -9 -29 6 -5 134 -35 149 -35 8 0 -3 10 -23 23 l-38 22 89 0 c50 0 94 5
100 10 7 7 -4 10 -32 11 -23 1 -62 10 -87 21 -29 13 -52 17 -65 12z"/>
</g>
</svg>